Coordinates
version=1
nRows=13
nColumns=36
inDegrees=yes

Units are S.I. units (second, meters, Newtons, ...)
If the header above contains a line with 'inDegrees', this indicates whether rotational values are in degrees (yes) or radians (no).

endheader
time	pelvis_tilt	pelvis_list	pelvis_rotation	pelvis_tx	pelvis_ty	pelvis_tz	hip_flexion_r	hip_adduction_r	hip_rotation_r	knee_angle_r	knee_angle_r_beta	ankle_angle_r	subtalar_angle_r	mtp_angle_r	hip_flexion_l	hip_adduction_l	hip_rotation_l	knee_angle_l	knee_angle_l_beta	ankle_angle_l	subtalar_angle_l	mtp_angle_l	lumbar_extension	lumbar_bending	lumbar_rotation	arm_flex_r	arm_add_r	arm_rot_r	elbow_flex_r	pro_sup_r	arm_flex_l	arm_add_l	arm_rot_l	elbow_flex_l	pro_sup_l
      1.29000000	     -1.51708629	     -1.24117545	      3.73935548	      1.27462103	      1.10080194	     -0.19370276	     25.72934248	      4.49866912	     -3.42159970	     11.21276057	      0.19569959	      4.23476730	     -4.60737607	     -7.49999957	    -11.19097015	      2.13718968	      2.13665892	      9.94247202	      0.17352887	     17.60036308	     -4.74479937	     -7.49999957	     -9.98755795	      2.92934744	     -8.16668920	     -6.63798258	     -3.61184461	    -11.17426346	     37.24066201	     96.76967164	     -2.67625740	     -7.39651364	    -12.71589405	     42.05249378	     99.84995557
      1.30000000	     -1.59751037	     -1.41141808	      3.78359725	      1.28809947	      1.09855808	     -0.19335173	     25.63844480	      4.81393989	     -3.10328614	     12.05436678	      0.21038839	      3.37685883	     -5.31979493	     -7.49999958	    -11.27705536	      1.97096242	      2.50676635	     10.92610894	      0.19069658	     17.15426331	     -5.65070601	     -7.49999958	     -9.69816654	      3.36297851	     -8.20899956	     -6.76729856	     -3.70910894	    -11.25996233	     37.33925970	     96.88718473	     -2.90493843	     -7.10768644	    -13.05691052	     41.50085780	     99.99936415
      1.31000000	     -1.51766523	     -1.57797100	      3.81739135	      1.30168181	      1.09649738	     -0.19253302	     25.33676756	      5.11564598	     -2.89113494	     12.87346673	      0.22468438	      2.83860468	     -5.39893372	     -7.49999958	    -11.50770563	      1.75485837	      2.53992952	     12.00412961	      0.20951159	     16.83040016	     -6.05013863	     -7.49999958	     -9.59151828	      3.77855083	     -8.18754377	     -6.84840598	     -3.81586849	    -11.34664104	     37.31850890	     96.92114898	     -3.20918634	     -6.90355104	    -13.11119703	     41.20981485	    100.05313114
      1.32000000	     -1.40543213	     -1.72117489	      3.81024477	      1.31517477	      1.09454009	     -0.19137529	     24.96564447	      5.40319783	     -2.61746289	     13.63752165	      0.23801965	      2.35568576	     -5.42077666	     -7.49999959	    -11.71641017	      1.55036540	      2.49044646	     13.21982492	      0.23072947	     16.37372731	     -6.40275067	     -7.49999959	     -9.46962826	      4.17793634	     -8.15299257	     -6.94266644	     -3.90651406	    -11.42316390	     37.29582496	     96.93422340	     -3.55635839	     -6.72281309	    -13.13660134	     40.91978287	    100.07851815
      1.33000000	     -1.58227977	     -1.79007235	      3.91179502	      1.32852330	      1.09238591	     -0.19023606	     24.87639871	      5.58901124	     -2.01678818	     14.34222296	      0.25031901	      1.48036609	     -6.27111151	     -7.49999959	    -11.46498941	      1.47346158	      3.08299492	     14.70744410	      0.25669332	     15.43261126	     -7.91579017	     -7.49999959	     -8.86889378	      4.47387258	     -8.19078562	     -7.26880676	     -3.91610075	    -11.77097765	     37.37090559	     97.01567187	     -3.81382717	     -6.49681389	    -13.38726382	     40.01836520	    100.17661456
      1.34000000	     -1.56422534	     -1.88772967	      3.94018305	      1.34153980	      1.09086728	     -0.18906493	     24.55974924	      5.81075143	     -1.58073385	     15.00499750	      0.26188661	      0.92683246	     -6.59365269	     -7.49999960	    -11.31520799	      1.31246059	      3.24338408	     16.39590711	      0.28616256	     14.61956182	     -8.78891324	     -7.49999960	     -8.57112824	      4.77480062	     -8.07058282	     -7.51692864	     -3.94452091	    -12.12844376	     37.42535457	     97.10268111	     -4.08784395	     -6.32589859	    -13.43684629	     39.43483190	    100.28634050
      1.35000000	     -1.35851592	     -2.01120662	      3.90940447	      1.35418840	      1.09012888	     -0.18793231	     24.01616453	      6.07064322	     -1.25782129	     15.60895565	      0.27242767	      0.63041696	     -6.60190498	     -7.49999960	    -11.23750687	      1.05811411	      3.01899001	     18.30038860	      0.31940204	     13.82713867	     -9.04975525	     -7.49999960	     -8.56905747	      5.06220745	     -7.93800830	     -7.61625916	     -4.03321162	    -12.22604967	     37.42190352	     97.11570642	     -4.45052476	     -6.20036218	    -13.43366007	     39.15387228	    100.30733323
      1.36000000	     -1.16120176	     -2.13925648	      3.90506800	      1.36646656	      1.08995043	     -0.18702944	     23.47424893	      6.31918707	     -0.93648109	     16.18841045	      0.28254106	      0.33393057	     -6.73593379	     -7.49999960	    -10.95271856	      0.77965908	      2.82067931	     20.51985515	      0.35813903	     12.86102072	     -9.38269616	     -7.49999960	     -8.53831238	      5.36873850	     -7.82100993	     -7.75657295	     -4.11581802	    -12.32338059	     37.44713599	     97.12257667	     -4.75936715	     -6.10049638	    -13.45311088	     38.84690069	    100.32015995
      1.37000000	     -1.54285069	     -2.28272125	      3.99494032	      1.37841125	      1.08939555	     -0.18650018	     23.60731469	      6.51855599	     -0.53569083	     16.82551145	      0.29366057	     -0.48219502	     -7.85846771	     -7.49999961	     -9.71860813	      0.61653538	      3.29231937	     23.27294638	      0.40618954	     11.46446410	    -10.87018497	     -7.49999961	     -7.70518463	      5.68733720	     -7.68095444	     -8.25574741	     -4.20990419	    -12.79261959	     37.88478008	     97.14934059	     -5.00494404	     -5.86732161	    -13.51303910	     37.90576706	    100.37384309
      1.38000000	     -1.50069208	     -2.49036404	      3.98587527	      1.38984813	      1.08994925	     -0.18567112	     23.25149349	      6.84909685	     -0.25750872	     17.40427658	      0.30376193	     -0.82372545	     -8.30040591	     -7.49999961	     -8.78872118	      0.26535930	      3.14995084	     26.22142309	      0.45765017	     10.15982947	    -11.37421110	     -7.49999961	     -7.53353310	      6.04602336	     -7.36066996	     -8.46971945	     -4.32734249	    -13.11467651	     38.09506257	     97.17334995	     -5.15330994	     -5.70266978	    -13.47113228	     37.36494795	    100.41595722
      1.39000000	     -1.19374729	     -2.69505882	      3.87953330	      1.40082284	      1.09129447	     -0.18429442	     22.57792478	      7.27146771	      0.09864806	     17.93238049	      0.31297908	     -0.87677061	     -8.36434527	     -7.49999961	     -8.01052668	     -0.16973779	      2.68391440	     29.29806733	      0.51134774	      8.64163334	    -11.34071778	     -7.49999961	     -7.83808789	      6.33153580	     -7.06983017	     -8.36597352	     -4.42318404	    -13.18560160	     38.15165848	     97.17832398	     -5.36060411	     -5.63892755	    -13.47366982	     37.09601597	    100.42276330
      1.40000000	     -1.38384628	     -3.08410762	      4.00202478	      1.41156865	      1.09190410	     -0.18333515	     22.49183603	      7.77658552	      0.23253462	     18.51380031	      0.32312677	     -1.34135846	     -8.90002614	     -7.49999962	     -6.29326826	     -0.71263042	      2.76880602	     32.98626823	      0.57571899	      7.24822010	    -11.91682526	     -7.49999962	     -7.44777288	      6.94584534	     -6.78361386	     -8.65797403	     -4.70419558	    -13.38623407	     38.47054602	     97.18375210	     -5.49407751	     -5.35076312	    -13.45205688	     36.58115928	    100.43860457
      1.41000000	     -1.17523462	     -3.31333007	      3.92426682	      1.42194468	      1.09332772	     -0.18133703	     21.89564566	      8.32483062	      0.77141054	     18.98404998	      0.33133418	     -1.41268141	     -8.88394928	     -7.49999962	     -4.99365139	     -1.21108764	      2.39813857	     36.53605439	      0.63767444	      5.41467903	    -11.80189149	     -7.49999962	     -7.77900396	      7.22415545	     -6.48201489	     -8.52873391	     -4.78241817	    -13.43485620	     38.57177232	     97.18595405	     -5.57917972	     -5.31402102	    -13.46530255	     36.27063239	    100.44095118
